<svg width="18" height="20" viewBox="0 0 18 20" fill="none" xmlns="http://www.w3.org/2000/svg">
<path d="M5.05414 16.25H0.804138V0.75H16.3041V16.25H12.0541H11.7767L11.566 16.4306L8.55414 19.0122L5.54223 16.4306L5.33158 16.25H5.05414Z" stroke="#323232" stroke-width="1.5"/>
<path d="M6.48014 5.11C6.61614 4.99 6.76414 4.876 6.92414 4.768C7.08814 4.66 7.26414 4.566 7.45214 4.486C7.64014 4.406 7.84414 4.344 8.06414 4.3C8.28414 4.252 8.52214 4.228 8.77814 4.228C9.12614 4.228 9.44214 4.276 9.72614 4.372C10.0141 4.468 10.2601 4.606 10.4641 4.786C10.6681 4.962 10.8261 5.176 10.9381 5.428C11.0501 5.68 11.1061 5.962 11.1061 6.274C11.1061 6.578 11.0621 6.842 10.9741 7.066C10.8861 7.286 10.7761 7.478 10.6441 7.642C10.5121 7.806 10.3661 7.948 10.2061 8.068C10.0501 8.188 9.90214 8.302 9.76214 8.41C9.62214 8.514 9.50014 8.618 9.39614 8.722C9.29614 8.822 9.23614 8.936 9.21614 9.064L9.07814 9.94H8.06414L7.96214 8.962C7.93814 8.774 7.96414 8.61 8.04014 8.47C8.12014 8.326 8.22414 8.196 8.35214 8.08C8.48414 7.96 8.63014 7.846 8.79014 7.738C8.95014 7.626 9.10014 7.506 9.24014 7.378C9.38014 7.246 9.49614 7.1 9.58814 6.94C9.68414 6.776 9.73214 6.582 9.73214 6.358C9.73214 6.214 9.70414 6.086 9.64814 5.974C9.59614 5.858 9.52214 5.76 9.42614 5.68C9.33014 5.596 9.21414 5.532 9.07814 5.488C8.94614 5.444 8.80214 5.422 8.64614 5.422C8.41814 5.422 8.22414 5.448 8.06414 5.5C7.90814 5.548 7.77414 5.604 7.66214 5.668C7.55414 5.728 7.46214 5.784 7.38614 5.836C7.31014 5.884 7.24214 5.908 7.18214 5.908C7.03814 5.908 6.93414 5.848 6.87014 5.728L6.48014 5.11ZM7.61414 12.184C7.61414 12.06 7.63614 11.942 7.68014 11.83C7.72814 11.718 7.79214 11.622 7.87214 11.542C7.95214 11.462 8.04814 11.398 8.16014 11.35C8.27214 11.302 8.39214 11.278 8.52014 11.278C8.64814 11.278 8.76614 11.302 8.87414 11.35C8.98614 11.398 9.08214 11.462 9.16214 11.542C9.24614 11.622 9.31214 11.718 9.36014 11.83C9.40814 11.942 9.43214 12.06 9.43214 12.184C9.43214 12.312 9.40814 12.432 9.36014 12.544C9.31214 12.652 9.24614 12.746 9.16214 12.826C9.08214 12.906 8.98614 12.968 8.87414 13.012C8.76614 13.06 8.64814 13.084 8.52014 13.084C8.39214 13.084 8.27214 13.06 8.16014 13.012C8.04814 12.968 7.95214 12.906 7.87214 12.826C7.79214 12.746 7.72814 12.652 7.68014 12.544C7.63614 12.432 7.61414 12.312 7.61414 12.184Z" fill="#323232"/>
</svg>
